# xmcd
# 
# Track frame offsets:
#     150
#     16894
#     30732
#     47176
#     63619
# 
# Disc length: 1033
# 
# Revision: 3
# Processed by: cddbd v1.5.2PL0 Copyright (c) Steve Scherf et al.
# Submitted via: fre:ac v1.0.17
# 
DISCID=3d040705
DTITLE=ストレイテナー - VANDALISM/SILLY PARADE
DYEAR=2011
DGENRE=Rock
TTITLE0=VANDALISM Prototype
TTITLE1=SILLY PARADE
TTITLE2=VANDALISM
TTITLE3=VANDALISM2
TTITLE4=SILLY PARADE2
EXTD=
EXTT0=
EXTT1=
EXTT2=
EXTT3=
EXTT4=
PLAYORDER=
